<?xml version="1.0" encoding="UTF-8" standalone="no"?>
<!-- Created with Inkscape (http://www.inkscape.org/) -->

<svg
   xmlns:dc="http://purl.org/dc/elements/1.1/"
   xmlns:cc="http://creativecommons.org/ns#"
   xmlns:rdf="http://www.w3.org/1999/02/22-rdf-syntax-ns#"
   xmlns:svg="http://www.w3.org/2000/svg"
   xmlns="http://www.w3.org/2000/svg"
   xmlns:sodipodi="http://sodipodi.sourceforge.net/DTD/sodipodi-0.dtd"
   xmlns:inkscape="http://www.inkscape.org/namespaces/inkscape"
   width="57.507359mm"
   height="57.507359mm"
   viewBox="0 0 57.507358 57.507359"
   version="1.1"
   id="svg8"
   inkscape:version="0.92.4 5da689c313, 2019-01-14"
   sodipodi:docname="sn3un_krug.svg">
  <defs
     id="defs2" />
  <sodipodi:namedview
     id="base"
     pagecolor="#ffffff"
     bordercolor="#666666"
     borderopacity="1.0"
     inkscape:pageopacity="0.0"
     inkscape:pageshadow="2"
     inkscape:zoom="1.4142136"
     inkscape:cx="-34.736659"
     inkscape:cy="107.41549"
     inkscape:document-units="mm"
     inkscape:current-layer="layer1"
     showgrid="false"
     fit-margin-left="2"
     fit-margin-right="2"
     fit-margin-bottom="2"
     fit-margin-top="2"
     inkscape:window-width="1920"
     inkscape:window-height="1028"
     inkscape:window-x="0"
     inkscape:window-y="0"
     inkscape:window-maximized="1" />
  <metadata
     id="metadata5">
    <rdf:RDF>
      <cc:Work
         rdf:about="">
        <dc:format>image/svg+xml</dc:format>
        <dc:type
           rdf:resource="http://purl.org/dc/dcmitype/StillImage" />
        <dc:title></dc:title>
      </cc:Work>
    </rdf:RDF>
  </metadata>
  <g
     inkscape:label="Layer 1"
     inkscape:groupmode="layer"
     id="layer1"
     transform="translate(-76.246321,-119.74632)">
    <g
       id="g834">
      <circle
         r="26.753679"
         cy="148.5"
         cx="105"
         id="path818"
         style="opacity:1;fill:#383c4a;fill-opacity:1;stroke:none;stroke-width:5.32919264;stroke-linejoin:miter;stroke-miterlimit:4;stroke-dasharray:none;stroke-dashoffset:0;stroke-opacity:1;paint-order:normal" />
      <g
         style="fill:#ffffff"
         inkscape:label="Layer 1"
         id="layer1-35"
         transform="matrix(0.75957705,0,0,0.75957705,25.245104,35.702926)">
        <path
           inkscape:connector-curvature="0"
           style="fill:#ffffff;fill-opacity:1;stroke:none;stroke-width:0.37795275;stroke-miterlimit:4;stroke-dasharray:none;stroke-opacity:1"
           d="m 102.49023,10.783203 c -6.665167,-0.02812 -13.423785,0.829475 -20.011714,2.666016 -8.469215,2.360957 -15.153902,5.629463 -21.623047,10.574219 -3.796551,2.901959 -8.751247,7.505213 -8.345703,7.753906 0.09585,0.05896 5.84344,3.124614 12.771484,6.814453 l 12.595703,6.708984 3.605469,-2.86914 c 5.97287,-4.756082 12.518188,-6.929688 20.876958,-6.929688 8.16544,0 14.75274,2.172933 20.52929,6.771485 8.89916,7.08427 10.89327,16.620423 5.6875,27.207031 -3.8036,7.735121 -10.05364,14.355635 -25.18164,26.169922 L 54.09375,95.521484 33.853516,84.023438 4.3867188,121.70312 72.097656,121.87109 c -1.211615,1.31666 -2.392536,2.6468 -3.550781,4.04297 -8.932467,10.76739 -13.271834,21.37421 -13.333984,32.59571 -0.05726,10.35492 3.188379,18.77047 10.625,27.54687 3.210765,3.78928 10.375093,9.42845 15.27539,12.02344 11.75209,6.22337 26.753049,9.36 39.566409,8.27539 11.33756,-0.95966 22.01632,-4.26735 30.96484,-9.5918 5.2724,-3.13712 13.21875,-9.80981 13.21875,-11.09961 0,-0.24415 -24.68059,-13.57226 -25.13281,-13.57226 -0.0964,0 -1.93691,1.3657 -4.08985,3.03515 -6.02305,4.67052 -12.11757,6.66407 -20.36132,6.66407 -8.33095,0 -14.3383,-1.99621 -20.394534,-6.77735 -6.500141,-5.13161 -8.854364,-9.99044 -8.460938,-17.46679 0.341405,-6.48768 2.994118,-12.1157 9.111328,-19.33399 3.20233,-3.77874 7.614234,-7.70581 18.326174,-16.23633 l 48.74805,0.1211 20.27734,11.23046 L 212.95703,95.939453 145.25,95.761719 c 8.26459,-8.978605 13.46228,-17.722627 16,-26.888672 0.71894,-2.596762 1.4439,-4.865437 1.42383,-10.669922 -0.0302,-8.226784 -1.20673,-11.076514 -4.51563,-17.619141 -9.26388,-18.317362 -31.86378,-29.700353 -55.66797,-29.800781 z"
           transform="matrix(0.26458333,0,0,0.26458333,76.246321,119.74632)"
           id="path844-6" />
      </g>
    </g>
  </g>
</svg>
