<?xml version="1.0" encoding="UTF-8" standalone="no"?>
<!-- Created with Inkscape (http://www.inkscape.org/) -->

<svg
   xmlns:dc="http://purl.org/dc/elements/1.1/"
   xmlns:cc="http://creativecommons.org/ns#"
   xmlns:rdf="http://www.w3.org/1999/02/22-rdf-syntax-ns#"
   xmlns:svg="http://www.w3.org/2000/svg"
   xmlns="http://www.w3.org/2000/svg"
   xmlns:sodipodi="http://sodipodi.sourceforge.net/DTD/sodipodi-0.dtd"
   xmlns:inkscape="http://www.inkscape.org/namespaces/inkscape"
   width="57.507359mm"
   height="57.507359mm"
   viewBox="0 0 57.507358 57.507359"
   version="1.1"
   id="svg8"
   inkscape:version="0.92.4 5da689c313, 2019-01-14"
   sodipodi:docname="sn3un_icon.svg">
  <defs
     id="defs2" />
  <sodipodi:namedview
     id="base"
     pagecolor="#ffffff"
     bordercolor="#666666"
     borderopacity="1.0"
     inkscape:pageopacity="0.0"
     inkscape:pageshadow="2"
     inkscape:zoom="2"
     inkscape:cx="68.82271"
     inkscape:cy="83.403941"
     inkscape:document-units="mm"
     inkscape:current-layer="layer1"
     showgrid="false"
     fit-margin-left="2"
     fit-margin-right="2"
     fit-margin-bottom="2"
     fit-margin-top="2"
     inkscape:window-width="1920"
     inkscape:window-height="1028"
     inkscape:window-x="0"
     inkscape:window-y="0"
     inkscape:window-maximized="1" />
  <metadata
     id="metadata5">
    <rdf:RDF>
      <cc:Work
         rdf:about="">
        <dc:format>image/svg+xml</dc:format>
        <dc:type
           rdf:resource="http://purl.org/dc/dcmitype/StillImage" />
        <dc:title></dc:title>
      </cc:Work>
    </rdf:RDF>
  </metadata>
  <g
     inkscape:label="Layer 1"
     inkscape:groupmode="layer"
     id="layer1"
     transform="translate(-76.246321,-119.74632)">
    <path
       style="fill:#000000;stroke:none;stroke-width:0.37795275;stroke-miterlimit:4;stroke-dasharray:none;stroke-opacity:1;fill-opacity:1"
       d="M 102.49023 10.783203 C 95.825063 10.755083 89.066445 11.612678 82.478516 13.449219 C 74.009301 15.810176 67.324614 19.078682 60.855469 24.023438 C 57.058918 26.925397 52.104222 31.528651 52.509766 31.777344 C 52.605614 31.836304 58.353206 34.901958 65.28125 38.591797 L 77.876953 45.300781 L 81.482422 42.431641 C 87.455292 37.675559 94.00061 35.501953 102.35938 35.501953 C 110.52482 35.501953 117.11212 37.674886 122.88867 42.273438 C 131.78783 49.357708 133.78194 58.893861 128.57617 69.480469 C 124.77257 77.21559 118.52253 83.836104 103.39453 95.650391 L 54.09375 95.521484 L 33.853516 84.023438 L 4.3867188 121.70312 L 72.097656 121.87109 C 70.886041 123.18775 69.70512 124.51789 68.546875 125.91406 C 59.614408 136.68145 55.275041 147.28827 55.212891 158.50977 C 55.155631 168.86469 58.40127 177.28024 65.837891 186.05664 C 69.048656 189.84592 76.212984 195.48509 81.113281 198.08008 C 92.865371 204.30345 107.86633 207.44008 120.67969 206.35547 C 132.01725 205.39581 142.69601 202.08812 151.64453 196.76367 C 156.91693 193.62655 164.86328 186.95386 164.86328 185.66406 C 164.86328 185.41991 140.18269 172.0918 139.73047 172.0918 C 139.63409 172.0918 137.79356 173.4575 135.64062 175.12695 C 129.61757 179.79747 123.52305 181.79102 115.2793 181.79102 C 106.94835 181.79102 100.941 179.79481 94.884766 175.01367 C 88.384625 169.88206 86.030402 165.02323 86.423828 157.54688 C 86.765233 151.0592 89.417946 145.43118 95.535156 138.21289 C 98.737486 134.43415 103.14939 130.50708 113.86133 121.97656 L 162.60938 122.09766 L 182.88672 133.32812 L 212.95703 95.939453 L 145.25 95.761719 C 153.51459 86.783114 158.71228 78.039092 161.25 68.873047 C 161.96894 66.276285 162.6939 64.00761 162.67383 58.203125 C 162.64359 49.976341 161.4671 47.126611 158.1582 40.583984 C 148.89432 22.266622 126.29442 10.883631 102.49023 10.783203 z "
       transform="matrix(0.26458333,0,0,0.26458333,76.246321,119.74632)"
       id="path844" />
  </g>
</svg>
